<svg xmlns="http://www.w3.org/2000/svg" width="24" height="24.056" viewBox="0 0 24 24.056">
  <g id="Group_235" data-name="Group 235" transform="translate(0 0.6)">
    <g id="Path_18" data-name="Path 18" transform="translate(0 -1.383)" fill="none">
      <path d="M2.571,6H21.429L24,22.27a2.57,2.57,0,0,1-2.571,2.569H2.571A2.57,2.57,0,0,1,0,22.27Z" stroke="none"/>
      <path d="M 3.596668243408203 7.200002670288086 L 1.202293395996094 22.34995651245117 C 1.243804931640625 23.06784629821777 1.842031478881836 23.63922119140625 2.571426391601562 23.63922119140625 L 21.42858505249023 23.63922119140625 C 22.15797996520996 23.63922119140625 22.75620651245117 23.06784629821777 22.7977180480957 22.34995651245117 L 20.40334320068359 7.200002670288086 L 3.596668243408203 7.200002670288086 M 2.571426391601562 6.000001907348633 L 21.42858505249023 6.000001907348633 L 24.00001525878906 22.27024078369141 C 24.00001525878906 23.68905258178711 22.84874534606934 24.8392219543457 21.42858505249023 24.8392219543457 L 2.571426391601562 24.8392219543457 C 1.151266098022461 24.8392219543457 -3.814697265625e-06 23.68905258178711 -3.814697265625e-06 22.27024078369141 L 2.571426391601562 6.000001907348633 Z" stroke="none" fill="#000"/>
    </g>
    <path id="Path_19" data-name="Path 19" d="M526.711-61.29s-.3-8.354,4.753-8.354c3.975,0,4.729,5.174,4.888,7.72.02.255.013.634.013.634" transform="translate(-519.529 69.644)" fill="none" stroke="#000" stroke-linecap="round" stroke-width="1.2"/>
  </g>
</svg>
