<svg xmlns="http://www.w3.org/2000/svg" width="14.894" height="15.156" viewBox="0 0 14.894 15.156">
  <g id="Group_1" data-name="Group 1" transform="translate(0 0.6)">
    <g id="Path_18" data-name="Path 18" transform="translate(0 -3.146)" fill="none">
      <path d="M1.6,6H13.3l1.6,10.106a1.6,1.6,0,0,1-1.6,1.6H1.6a1.6,1.6,0,0,1-1.6-1.6Z" stroke="none"/>
      <path d="M 2.621161460876465 7.200000762939453 L 1.204970359802246 16.16922569274902 C 1.235114097595215 16.35775184631348 1.398881912231445 16.50226020812988 1.595765113830566 16.50226020812988 L 13.29802513122559 16.50226020812988 C 13.49490737915039 16.50226020812988 13.65867519378662 16.35775184631348 13.68881893157959 16.16922569274902 L 12.27262783050537 7.200000762939453 L 2.621161460876465 7.200000762939453 M 1.595765113830566 6 L 13.29802513122559 6 L 14.89378452301025 16.10650062561035 C 14.89378452301025 16.9878101348877 14.17934417724609 17.70226097106934 13.29802513122559 17.70226097106934 L 1.595765113830566 17.70226097106934 C 0.7144451141357422 17.70226097106934 4.76837158203125e-06 16.9878101348877 4.76837158203125e-06 16.10650062561035 L 1.595765113830566 6 Z" stroke="none" fill="#000"/>
    </g>
    <path id="Path_19" data-name="Path 19" d="M526.71-64.48s-.184-5.164,2.938-5.164,3.029,5.164,3.029,5.164" transform="translate(-522.241 69.644)" fill="none" stroke="#000" stroke-linecap="round" stroke-width="1.2"/>
  </g>
</svg>
