<svg xmlns="http://www.w3.org/2000/svg" width="10" height="10.274" viewBox="0 0 10 10.274">
  <g id="Component_29_1" data-name="Component 29 – 1" transform="translate(0 0.5)">
    <g id="Path_18" data-name="Path 18" transform="translate(0 -4.084)" fill="none">
      <path d="M1.071,6H8.929L10,12.786a1.071,1.071,0,0,1-1.071,1.071H1.071A1.071,1.071,0,0,1,0,12.786Z" stroke="none"/>
      <path d="M 1.925915718078613 6.999997138977051 L 1.007386207580566 12.81733703613281 C 1.019070625305176 12.84090232849121 1.04338550567627 12.85713672637939 1.071425437927246 12.85713672637939 L 8.92856502532959 12.85713672637939 C 8.956604957580566 12.85713672637939 8.98091983795166 12.84090232849121 8.99260425567627 12.81733703613281 L 8.074074745178223 6.999997138977051 L 1.925915718078613 6.999997138977051 M 1.071425437927246 5.999997138977051 L 8.92856502532959 5.999997138977051 L 9.999995231628418 12.78570747375488 C 9.999995231628418 13.37743759155273 9.520295143127441 13.85713672637939 8.92856502532959 13.85713672637939 L 1.071425437927246 13.85713672637939 C 0.4796953201293945 13.85713672637939 -4.76837158203125e-06 13.37743759155273 -4.76837158203125e-06 12.78570747375488 L 1.071425437927246 5.999997138977051 Z" stroke="none" fill="#fff"/>
    </g>
    <path id="Path_19" data-name="Path 19" d="M526.709-66.177s-.124-3.467,1.973-3.467,2.034,3.467,2.034,3.467" transform="translate(-523.708 69.644)" fill="none" stroke="#fff" stroke-linecap="round" stroke-width="1"/>
  </g>
</svg>
