<svg xmlns="http://www.w3.org/2000/svg" width="34.661" height="39.612" viewBox="0 0 34.661 39.612">
  <path id="Icon_awesome-building" data-name="Icon awesome-building" d="M33.732,37.137H32.185V1.857A1.857,1.857,0,0,0,30.328,0h-26A1.857,1.857,0,0,0,2.476,1.857v35.28H.928A.928.928,0,0,0,0,38.065v1.547H34.661V38.065A.928.928,0,0,0,33.732,37.137ZM9.9,5.88a.928.928,0,0,1,.928-.928h3.095a.928.928,0,0,1,.928.928V8.975a.928.928,0,0,1-.928.928H10.831A.928.928,0,0,1,9.9,8.975Zm0,7.427a.928.928,0,0,1,.928-.928h3.095a.928.928,0,0,1,.928.928V16.4a.928.928,0,0,1-.928.928H10.831A.928.928,0,0,1,9.9,16.4Zm4.023,11.45H10.831a.928.928,0,0,1-.928-.928V20.735a.928.928,0,0,1,.928-.928h3.095a.928.928,0,0,1,.928.928v3.095A.928.928,0,0,1,13.926,24.758Zm5.88,12.379H14.855v-6.5a.928.928,0,0,1,.928-.928h3.095a.928.928,0,0,1,.928.928Zm4.952-13.307a.928.928,0,0,1-.928.928H20.735a.928.928,0,0,1-.928-.928V20.735a.928.928,0,0,1,.928-.928h3.095a.928.928,0,0,1,.928.928Zm0-7.427a.928.928,0,0,1-.928.928H20.735a.928.928,0,0,1-.928-.928V13.307a.928.928,0,0,1,.928-.928h3.095a.928.928,0,0,1,.928.928Zm0-7.427a.928.928,0,0,1-.928.928H20.735a.928.928,0,0,1-.928-.928V5.88a.928.928,0,0,1,.928-.928h3.095a.928.928,0,0,1,.928.928Z" fill="#fff"/>
</svg>
