<svg width="36" height="36" viewBox="0 0 36 36" fill="none" xmlns="http://www.w3.org/2000/svg">
<path d="M15 15.5H6C5.86739 15.5 5.74022 15.4473 5.64645 15.3536C5.55268 15.2598 5.5 15.1326 5.5 15V6C5.5 5.86739 5.55268 5.74021 5.64645 5.64645C5.74021 5.55268 5.86739 5.5 6 5.5H15C15.1326 5.5 15.2598 5.55268 15.3536 5.64645C15.4473 5.74022 15.5 5.86739 15.5 6V15C15.5 15.1326 15.4473 15.2598 15.3536 15.3536C15.2598 15.4473 15.1326 15.5 15 15.5ZM30 15.5H21C20.8674 15.5 20.7402 15.4473 20.6464 15.3536C20.5527 15.2598 20.5 15.1326 20.5 15V6C20.5 5.86739 20.5527 5.74022 20.6464 5.64645C20.7402 5.55268 20.8674 5.5 21 5.5H30C30.1326 5.5 30.2598 5.55268 30.3536 5.64645C30.4473 5.74021 30.5 5.86739 30.5 6V15C30.5 15.1326 30.4473 15.2598 30.3536 15.3536C30.2598 15.4473 30.1326 15.5 30 15.5ZM15 30.5H6C5.86739 30.5 5.74021 30.4473 5.64645 30.3536C5.55268 30.2598 5.5 30.1326 5.5 30V21C5.5 20.8674 5.55268 20.7402 5.64645 20.6464C5.74022 20.5527 5.86739 20.5 6 20.5H15C15.1326 20.5 15.2598 20.5527 15.3536 20.6464C15.4473 20.7402 15.5 20.8674 15.5 21V30C15.5 30.1326 15.4473 30.2598 15.3536 30.3536C15.2598 30.4473 15.1326 30.5 15 30.5ZM30.5 25.5C30.5 28.2567 28.2567 30.5 25.5 30.5C22.7433 30.5 20.5 28.2567 20.5 25.5C20.5 22.7433 22.7433 20.5 25.5 20.5C28.2567 20.5 30.5 22.7433 30.5 25.5Z" stroke="black" stroke-width="2"/>
</svg>
