<svg xmlns="http://www.w3.org/2000/svg" width="19.677" height="19.681" viewBox="0 0 19.677 19.681">
  <g id="Icon_ionic-ios-pricetag" data-name="Icon ionic-ios-pricetag" transform="translate(0.5 0.5)">
    <path id="Icon_ionic-ios-pricetag-2" data-name="Icon ionic-ios-pricetag" d="M4.664,3.375h5.519a.649.649,0,0,1,.458.189L21.675,14.6a1.3,1.3,0,0,1,0,1.828L16.42,21.679a1.3,1.3,0,0,1-1.828,0L3.564,10.65a.649.649,0,0,1-.189-.458V4.668A1.287,1.287,0,0,1,4.664,3.375ZM6.806,8.4A1.437,1.437,0,1,0,5.535,7.125,1.438,1.438,0,0,0,6.806,8.4Z" transform="translate(-3.375 -3.375)" fill="none" stroke="#000" stroke-width="1"/>
  </g>
</svg>
