<svg xmlns="http://www.w3.org/2000/svg" width="26.87" height="27.009" viewBox="0 0 26.87 27.009">
  <path id="Icon_ionic-ios-pricetag" data-name="Icon ionic-ios-pricetag" d="M26.155,3.375h-7.23a.851.851,0,0,0-.6.247L3.869,18.077a1.7,1.7,0,0,0,0,2.394l6.883,6.883a1.7,1.7,0,0,0,2.394,0L27.6,12.906a.851.851,0,0,0,.247-.6V5.069A1.686,1.686,0,0,0,26.155,3.375ZM23.348,9.952a1.882,1.882,0,1,1,1.665-1.665A1.884,1.884,0,0,1,23.348,9.952Z" transform="matrix(0.035, -0.999, 0.999, 0.035, -2.71, 28.484)" fill="none" stroke="#000" stroke-width="1.5"/>
</svg>
