<svg xmlns="http://www.w3.org/2000/svg" width="10.559" height="13.366" viewBox="0 0 10.559 13.366">
  <path id="Path_149" data-name="Path 149" d="M21.764,10.24H18.71a1.39,1.39,0,1,0-2.781,0H12.874a.834.834,0,1,0,0,1.669l.472,8.983a1.39,1.39,0,0,0,1.386,1.324h5.16a1.39,1.39,0,0,0,1.386-1.324l.486-8.965a.834.834,0,1,0,0-1.669Zm-5.3,9.168a.556.556,0,1,1-1.112,0v-5.54a.556.556,0,1,1,1.112,0Zm2.777,0a.556.556,0,1,1-1.108,0v-5.54a.556.556,0,0,1,1.108,0Z" transform="translate(-12.04 -8.85)" fill="#fff"/>
</svg>
