<svg xmlns="http://www.w3.org/2000/svg" width="24" height="24" viewBox="0 0 24 24">
  <g id="Icon_feather-heart" data-name="Icon feather-heart" transform="translate(-2.323 -4.497)" fill="none" stroke-linejoin="round">
    <path d="M24.472,6.619a5.762,5.762,0,0,0-8.933,0l-1.217,1.4-1.217-1.4a5.763,5.763,0,0,0-8.933,0,8.012,8.012,0,0,0,0,10.241l1.217,1.4L14.323,28.5l8.933-10.241,1.217-1.4a8.01,8.01,0,0,0,0-10.241Z" stroke="none"/>
    <path d="M 20.00613403320312 5.697261810302734 C 18.67079544067383 5.697261810302734 17.40585517883301 6.304670333862305 16.44415664672852 7.407800674438477 L 15.22711563110352 8.803171157836914 C 14.99922561645508 9.064451217651367 14.66946506500244 9.214401245117188 14.3227653503418 9.214401245117188 C 13.97606563568115 9.214401245117188 13.646315574646 9.064451217651367 13.41842555999756 8.803171157836914 L 12.20137596130371 7.407800674438477 C 11.23967552185059 6.305191040039062 9.974676132202148 5.697961807250977 8.639394760131836 5.697961807250977 C 7.304115295410156 5.697961807250977 6.039115905761719 6.305191040039062 5.077415466308594 7.407800674438477 C 4.075075149536133 8.557010650634766 3.523065567016602 10.09545135498047 3.523065567016602 11.7397518157959 C 3.523065567016602 13.38404083251953 4.075075149536133 14.9224910736084 5.077415466308594 16.07169151306152 L 14.3227653503418 26.67164993286133 L 23.56829452514648 16.07148170471191 C 24.57091522216797 14.92250061035156 25.12307548522949 13.38413047790527 25.12307548522949 11.7397403717041 C 25.12307548522949 10.09536170959473 24.57091522216797 8.556991577148438 23.56792449951172 7.407590866088867 C 22.60640525817871 6.304670333862305 21.34146499633789 5.697261810302734 20.00613403320312 5.697261810302734 M 20.00613403320312 4.497259140014648 C 21.62271118164062 4.497259140014648 23.23928451538086 5.20451545715332 24.47245597839355 6.61903190612793 C 26.93995475769043 9.446731567382812 26.93995475769043 14.03276062011719 24.47245597839355 16.8604621887207 L 14.3227653503418 28.49726104736328 L 4.173074722290039 16.8604621887207 C 1.706396102905273 14.03237152099609 1.706396102905273 9.44713020324707 4.173074722290039 6.61903190612793 C 6.639759063720703 3.790939331054688 10.6390380859375 3.790943145751953 13.10571575164795 6.61903190612793 L 14.3227653503418 8.014400482177734 L 15.53980541229248 6.61903190612793 C 16.77297973632812 5.20451545715332 18.38955688476562 4.497259140014648 20.00613403320312 4.497259140014648 Z" stroke="none" fill="#000"/>
  </g>
</svg>
