<svg xmlns="http://www.w3.org/2000/svg" width="34.601" height="30.953" viewBox="0 0 34.601 30.953">
  <g id="Group_193" data-name="Group 193" transform="translate(-21.75 -416.181)">
    <rect id="Component_65_1" data-name="Component 65 – 1" width="34" height="30" transform="translate(22 417.017)" fill="none"/>
    <path id="Path_141" data-name="Path 141" d="M-3916.655,2071.384h33.088s.371-10.166-9.7-14.087c0-.016-2.038,4.942-6.813,5.165-4.718-.065-6.6-5.18-7.05-5.148C-3907.745,2057.371-3916.917,2060.507-3916.655,2071.384Z" transform="translate(3939.16 -1625)" fill="none" stroke="#000" stroke-width="1.5"/>
    <g id="Rectangle_232" data-name="Rectangle 232" transform="translate(33 419)" fill="none" stroke="#000" stroke-width="1.5">
      <rect width="12" height="16" rx="6" stroke="none"/>
      <rect x="0.75" y="0.75" width="10.5" height="14.5" rx="5.25" fill="none"/>
    </g>
    <path id="Path_142" data-name="Path 142" d="M-3907.7,2050.906s-.336-8.839,7.563-8.973c7.83-.171,8,8.973,8,8.973" transform="translate(3939 -1625)" fill="none" stroke="#000" stroke-width="1.5"/>
    <g id="Rectangle_233" data-name="Rectangle 233" transform="translate(30 425)" fill="none" stroke="#000" stroke-width="1.5">
      <path d="M2,0H3A0,0,0,0,1,3,0V4A0,0,0,0,1,3,4H2A2,2,0,0,1,0,2V2A2,2,0,0,1,2,0Z" stroke="none"/>
      <path d="M1.688.75h0a.563.563,0,0,1,.563.563V2.688a.563.563,0,0,1-.562.563h0A.938.938,0,0,1,.75,2.313V1.688A.938.938,0,0,1,1.688.75Z" fill="none"/>
    </g>
    <g id="Rectangle_234" data-name="Rectangle 234" transform="translate(45 425)" fill="none" stroke="#000" stroke-width="1.5">
      <path d="M0,0H1A2,2,0,0,1,3,2V2A2,2,0,0,1,1,4H0A0,0,0,0,1,0,4V0A0,0,0,0,1,0,0Z" stroke="none"/>
      <path d="M1.313.75h0a.938.938,0,0,1,.938.938v.625a.938.938,0,0,1-.937.938h0A.563.563,0,0,1,.75,2.688V1.313A.563.563,0,0,1,1.313.75Z" fill="none"/>
    </g>
    <path id="Path_143" data-name="Path 143" d="M-3892.947,2053.234s-2.2,4.7-6.934,1.03" transform="translate(3939 -1625)" fill="none" stroke="#000" stroke-width="1"/>
    <circle id="Ellipse_63" data-name="Ellipse 63" cx="1" cy="1" r="1" transform="translate(38 428)"/>
  </g>
</svg>
