<svg id="Component_65_1" data-name="Component 65 – 1" xmlns="http://www.w3.org/2000/svg" width="23.371" height="20.295" viewBox="0 0 23.371 20.295">
  <g id="Subtraction_68" data-name="Subtraction 68" transform="translate(0 10.208)" fill="none" stroke-linecap="round" stroke-linejoin="round">
    <path d="M22.8,10.086H.567A.568.568,0,0,1,0,9.519a9.841,9.841,0,0,1,2.01-5.99A10.006,10.006,0,0,1,7.1,0a4.73,4.73,0,0,0,4.589,3.672A4.73,4.73,0,0,0,16.273,0a10.005,10.005,0,0,1,5.088,3.529,9.841,9.841,0,0,1,2.01,5.99A.568.568,0,0,1,22.8,10.086Z" stroke="none"/>
    <path d="M 22.80420112609863 9.586301803588867 C 22.84052085876465 9.586301803588867 22.87120056152344 9.555622100830078 22.87120056152344 9.519301414489746 C 22.87120056152344 7.445931911468506 22.21129035949707 5.478961944580078 20.96281051635742 3.831051826477051 C 19.85707855224609 2.37157940864563 18.32643699645996 1.250914335250854 16.61307907104492 0.6370458602905273 C 15.90756511688232 2.714427947998047 13.91631412506104 4.172001838684082 11.68560028076172 4.172001838684082 C 9.454488754272461 4.172001838684082 7.46292781829834 2.71457576751709 6.757326126098633 0.6373341083526611 C 5.044158935546875 1.251305937767029 3.513746500015259 2.371973514556885 2.408160209655762 3.831381797790527 C 1.159830331802368 5.479221820831299 0.5000002980232239 7.446071624755859 0.5000002980232239 9.519301414489746 C 0.5000002980232239 9.555622100830078 0.5306802988052368 9.586301803588867 0.5670002698898315 9.586301803588867 L 22.80420112609863 9.586301803588867 M 22.80420112609863 10.08630180358887 L 0.5670002698898315 10.08630180358887 C 0.2543602883815765 10.08630180358887 2.807617249800387e-07 9.831941604614258 2.807617249800387e-07 9.519301414489746 C 2.807617249800387e-07 7.336161613464355 0.6949102878570557 5.264911651611328 2.009610176086426 3.529461860656738 C 3.2817702293396 1.850161790847778 5.088540077209473 0.5967517495155334 7.097090244293213 0.0001317739806836471 C 7.572220325469971 2.128071784973145 9.501440048217773 3.672001838684082 11.68560028076172 3.672001838684082 C 13.86887073516846 3.672001838684082 15.79826068878174 2.127651691436768 16.27326965332031 -0.0001182260166388005 C 18.28286933898926 0.5966117978096008 20.08939933776855 1.850241780281067 21.36135101318359 3.529111862182617 C 22.67620086669922 5.264631748199463 23.37120056152344 7.336001873016357 23.37120056152344 9.519301414489746 C 23.37120056152344 9.831941604614258 23.11684036254883 10.08630180358887 22.80420112609863 10.08630180358887 Z" stroke="none" fill="#4d4d4d"/>
  </g>
  <g id="Rectangle_419" data-name="Rectangle 419" transform="translate(7.18 1.001)" fill="none" stroke="#4d4d4d" stroke-width="0.5">
    <rect width="9" height="11" rx="4.5" stroke="none"/>
    <rect x="0.25" y="0.25" width="8.5" height="10.5" rx="4.25" fill="none"/>
  </g>
  <g id="Union_114" data-name="Union 114" transform="translate(6.18)" fill="none">
    <path d="M1,7.5V7H0V5.5a5.5,5.5,0,1,1,11,0V7H10v.5a4.5,4.5,0,0,1-9,0Z" stroke="none"/>
    <path d="M 5.499900341033936 11.70059967041016 C 7.815790176391602 11.70059967041016 9.69990062713623 9.816490173339844 9.69990062713623 7.50059986114502 L 9.69990062713623 6.700200080871582 L 10.69980049133301 6.700200080871582 L 10.69980049133301 5.499899864196777 C 10.69980049133301 2.632669925689697 8.367130279541016 0.2999999225139618 5.499900341033936 0.2999999225139618 C 2.632670402526855 0.2999999225139618 0.3000003397464752 2.632669925689697 0.3000003397464752 5.499899864196777 L 0.3000003397464752 6.700200080871582 L 1.29990029335022 6.700200080871582 L 1.29990029335022 7.50059986114502 C 1.29990029335022 9.816490173339844 3.18401026725769 11.70059967041016 5.499900341033936 11.70059967041016 M 5.499900341033936 12.00059986114502 C 3.015000343322754 12.00059986114502 0.9999003410339355 9.98639965057373 0.9999003410339355 7.50059986114502 L 0.9999003410339355 7.000199794769287 L 3.410339388665307e-07 7.000199794769287 L 3.410339388665307e-07 5.499899864196777 C 3.410339388665307e-07 2.466899871826172 2.46690034866333 -6.942749308791463e-08 5.499900341033936 -6.942749308791463e-08 C 8.532900810241699 -6.942749308791463e-08 10.99980068206787 2.466899871826172 10.99980068206787 5.499899864196777 L 10.99890041351318 7.000199794769287 L 9.999900817871094 7.000199794769287 L 9.999900817871094 7.50059986114502 C 9.999900817871094 9.98639965057373 7.985700130462646 12.00059986114502 5.499900341033936 12.00059986114502 Z" stroke="none" fill="#4d4d4d"/>
  </g>
  <g id="Subtraction_69" data-name="Subtraction 69" transform="translate(17.179 5.5) rotate(90)" fill="none">
    <path d="M2,1H0A1,1,0,1,1,2,1V1Z" stroke="none"/>
    <path d="M 1.630491495132446 0.6990000009536743 C 1.518704175949097 0.4628336429595947 1.278064966201782 0.2991000115871429 0.9998950362205505 0.2991000115871429 C 0.7226961255073547 0.2991000115871429 0.482816755771637 0.4627575278282166 0.3708606362342834 0.6990000009536743 L 1.630491495132446 0.6990000009536743 M 1.997105002403259 0.9990000128746033 L 0.003605006728321314 0.9990000128746033 C 0.003605006728321314 0.4472000300884247 0.4509850144386292 -0.0008999788551591337 0.9998950362205505 -0.0008999788551591337 C 1.549754977226257 -0.0008999788551591337 1.997105002403259 0.4464400112628937 1.997105002403259 0.9963000416755676 L 1.997995018959045 0.9978100061416626 L 1.997105002403259 0.9990000128746033 Z" stroke="none" fill="#4d4d4d"/>
  </g>
  <g id="Subtraction_71" data-name="Subtraction 71" transform="translate(7.18 5.504) rotate(90)" fill="none">
    <path d="M1,1A1,1,0,0,1,0,0L1.993,0A1,1,0,0,1,1,1Z" stroke="none"/>
    <path d="M 0.9962999820709229 0.6999000310897827 C 1.273601770401001 0.6999000310897827 1.513603687286377 0.5365527868270874 1.625840306282043 0.3006649315357208 L 0.3676782846450806 0.3029370307922363 C 0.4798192083835602 0.5374828577041626 0.7194526195526123 0.6999000310897827 0.9962999820709229 0.6999000310897827 M 0.9962999820709229 0.9999000430107117 C 0.446940004825592 0.9999000430107117 -2.861022974087746e-09 0.5529600381851196 -2.861022974087746e-09 0.003600021591410041 L 1.993499994277954 2.150535571843193e-08 C 1.993499994277954 0.551800012588501 1.54570996761322 0.9999000430107117 0.9962999820709229 0.9999000430107117 Z" stroke="none" fill="#4d4d4d"/>
  </g>
  <path id="Path_96" data-name="Path 96" d="M-2252.887-183a3.266,3.266,0,0,1-4.078,1.688" transform="translate(2269.911 190.001)" fill="none" stroke="#4d4d4d" stroke-linecap="round" stroke-width="0.3"/>
  <circle id="Ellipse_492" data-name="Ellipse 492" cx="0.5" cy="0.5" r="0.5" transform="translate(12.18 8.001)" fill="#4d4d4d"/>
  <path id="Icon_open-question-mark" data-name="Icon open-question-mark" d="M2.757,0a2.884,2.884,0,0,0-2.1.737A2.435,2.435,0,0,0,0,2.165l1.116.145a1.353,1.353,0,0,1,.346-.77,1.657,1.657,0,0,1,1.295-.424A1.969,1.969,0,0,1,4.119,1.5a.933.933,0,0,1,.313.737c0,.926-.379,1.183-.938,1.674A3.181,3.181,0,0,0,2.2,6.418V6.7H3.315V6.418a1.857,1.857,0,0,1,.9-1.674A3.2,3.2,0,0,0,5.547,2.232,2.144,2.144,0,0,0,4.889.659,3.085,3.085,0,0,0,2.757,0ZM2.2,7.813V8.929H3.315V7.813Z" transform="translate(17.824 1.001)" fill="#4d4d4d"/>
</svg>
