<svg xmlns="http://www.w3.org/2000/svg" width="50.939" height="39.612" viewBox="0 0 50.939 39.612">
  <path id="Icon_awesome-home" data-name="Icon awesome-home" d="M24.793,12.53,8.49,25.958V40.451A1.415,1.415,0,0,0,9.9,41.866l9.909-.026a1.415,1.415,0,0,0,1.408-1.415V31.961a1.415,1.415,0,0,1,1.415-1.415H28.3a1.415,1.415,0,0,1,1.415,1.415v8.457a1.415,1.415,0,0,0,1.415,1.419l9.906.027a1.415,1.415,0,0,0,1.415-1.415v-14.5L26.146,12.53A1.078,1.078,0,0,0,24.793,12.53Zm25.753,9.127-7.393-6.094V3.315a1.061,1.061,0,0,0-1.061-1.061H37.141A1.061,1.061,0,0,0,36.08,3.315V9.736L28.162,3.222a4.245,4.245,0,0,0-5.394,0L.384,21.657a1.061,1.061,0,0,0-.141,1.494L2.5,25.893a1.061,1.061,0,0,0,1.5.144L24.793,8.9a1.078,1.078,0,0,1,1.353,0l20.8,17.132a1.061,1.061,0,0,0,1.494-.141L50.7,23.154a1.061,1.061,0,0,0-.15-1.5Z" transform="translate(0.001 -2.253)" fill="#fff"/>
</svg>
