<svg width="36" height="36" viewBox="0 0 36 36" fill="none" xmlns="http://www.w3.org/2000/svg">
<path d="M8.49961 20.9783V19.9783H7.49961H4.49987C4.49978 19.9783 4.4997 19.9783 4.49961 19.9783C4.40306 19.9782 4.30859 19.9501 4.22762 19.8975C4.14658 19.8449 4.08253 19.7699 4.04322 19.6816C4.00391 19.5933 3.99104 19.4955 4.00615 19.4001C4.02126 19.3046 4.06371 19.2156 4.12837 19.1438L4.1284 19.1437L17.6284 4.14372L17.6291 4.14294C17.8003 3.95235 18.199 3.95235 18.3701 4.14294L18.3708 4.14371L31.8708 19.1437L31.8716 19.1446C31.9361 19.2161 31.9785 19.3048 31.9935 19.3999C32.0085 19.4951 31.9956 19.5925 31.9563 19.6804L31.9552 19.6829C31.9161 19.7709 31.8523 19.8456 31.7716 19.8981C31.6909 19.9505 31.5967 19.9783 31.5005 19.9783H31.4996H28.4996H27.4996V20.9783V31.4783C27.4996 31.6109 27.4469 31.738 27.3532 31.8318C27.2594 31.9256 27.1322 31.9783 26.9996 31.9783H8.99961C8.867 31.9783 8.73982 31.9256 8.64606 31.8318C8.55229 31.738 8.49961 31.6109 8.49961 31.4783V20.9783Z" stroke="black" stroke-width="2" stroke-linecap="round"/>
<path d="M13 19.5C13 19.5 14 23 18 23C22 23 23 19.5 23 19.5" stroke="black" stroke-width="2" stroke-linecap="round"/>
</svg>
