<svg width="36" height="36" viewBox="0 0 36 36" fill="none" xmlns="http://www.w3.org/2000/svg">
<path d="M4.5 21H7.5V31.5C7.5 31.8978 7.65804 32.2794 7.93934 32.5607C8.22065 32.842 8.60218 33 9 33H27C27.3978 33 27.7794 32.842 28.0607 32.5607C28.342 32.2794 28.5 31.8978 28.5 31.5V21H31.5C31.7899 21.0002 32.0736 20.9163 32.3167 20.7584C32.5598 20.6005 32.7519 20.3754 32.8695 20.1105C32.988 19.8457 33.0269 19.5522 32.9816 19.2656C32.9364 18.9791 32.8088 18.7119 32.6145 18.4965L19.1145 3.49649C18.546 2.86349 17.454 2.86349 16.8855 3.49649L3.3855 18.4965C3.19154 18.712 3.06419 18.9791 3.01885 19.2654C2.97351 19.5518 3.01214 19.8452 3.13005 20.11C3.24797 20.3749 3.44011 20.5999 3.68325 20.7579C3.92638 20.9158 4.21007 20.9999 4.5 21ZM13.4235 20.526C13.47 20.6685 14.643 24 18 24C21.4035 24 22.575 20.5335 22.575 20.5335C23.0399 19.0054 25.7822 18.5968 25.425 21.465C25.3515 21.6915 23.5545 27 18 27C12.4455 27 10.6485 21.6915 10.575 21.4665C10.1544 18.7939 12.8841 18.9778 13.4235 20.526Z" fill="#FE3F6C"/>
</svg>
