<?xml version="1.0" encoding="utf-8"?>
<!-- Generator: Adobe Illustrator 25.3.0, SVG Export Plug-In . SVG Version: 6.00 Build 0)  -->
<svg version="1.0" id="Layer_1" xmlns="http://www.w3.org/2000/svg" xmlns:xlink="http://www.w3.org/1999/xlink" x="0px" y="0px"
	 viewBox="0 0 1080 500" style="enable-background:new 0 0 1080 500;" xml:space="preserve">
<style type="text/css">
	.st0{fill:none;}
	.st1{display:none;}
	.st2{display:inline;}
	.st3{fill:#FE3F6C;}
	.st4{fill:#F4F4F4;}
	.st5{display:inline;fill:#FE3F6C;}
	.st6{fill:#282828;}
	.st7{display:inline;fill:#282828;}
	.st8{display:inline;fill:#F4F4F4;}
	.st9{fill:none;stroke:#F4F4F4;stroke-width:2;stroke-miterlimit:10;}
	.st10{fill:none;stroke:#282828;stroke-width:3;stroke-miterlimit:10;}
</style>
<rect class="st0" width="1080" height="500"/>
<g class="st1">
	<g class="st2">
		<circle class="st3" cx="-306" cy="72.3" r="14.6"/>
		<g>
			<g>
				<path class="st4" d="M-731.9,205.3c7.4-16.4,13.3-42.3,15.5-76.6l3.6-57l-9.5-24.1h28.4l49.5,126.3l45.9-126.3h30.4
					c-3.4,4.5-7.9,10.6-11,16.9l5.4,94.1c1.4,23.4,5.6,36.9,10.6,46.6H-607c7-10.6,8.8-29.5,7.9-46.6l-4.3-73.6
					c-7,11.3-16.4,29.5-23.4,48.6l-17.6,48.4v23.2h-16.2L-710.3,78l-3.2,46.8c-2.7,41.2,6.8,66.9,13.7,80.4H-731.9z"/>
				<path class="st4" d="M-502.9,90.9c31.5,0,57.9,26.1,57.9,58.5c0,32.2-25.7,57.6-57,57.6c-31.8,0-58.1-26.1-58.1-58.8
					C-560.1,116.1-534.2,90.9-502.9,90.9z M-490.6,202.6c15.8,0.2,23.9-15.1,23.9-33.3c0-29.7-23-73.9-48.2-73.9
					c-15.5,0-23.4,15.3-23.4,32.9C-538.3,158-515.6,201.7-490.6,202.6z"/>
				<path class="st4" d="M-390.1,90.9c17.8,0,29.3,11.7,33.8,17.1v-9c0.2-19.6-5.2-29.7-10.4-33.8v-0.9l34-16.7v118.2
					c0,21.6,5,34.7,10.6,39.4h-35.6l0.2-12.6c-5.2,5.4-15.1,14.4-32.7,14.4c-23.2,0-47.7-16.9-47.7-57
					C-437.9,110.2-412.2,90.9-390.1,90.9z M-379.3,199.2c9.2,0,17.6-6.1,21.8-10.8l1.1-75.4c-4.5-7.2-14-15.1-25.4-15.1
					c-15.8,0-30.4,16.7-30.2,50.4C-411.7,184.3-396.4,199.2-379.3,199.2z"/>
				<path class="st4" d="M-320.8,240.2c9.2-3.4,13.1-14.6,12.8-40.5v-57.4c0.2-19.6-5.2-29.7-10.6-33.8v-0.9l34-16.7V187
					c0,40.5-20,50.7-36.3,54V240.2z"/>
				<path class="st4" d="M-157.3,150.8c-0.5,30.2-24.3,56.3-55.8,56.3c-32.2,0-57.9-24.8-57.9-57.6c0-34.2,26.3-58.5,58.3-58.5
					c24.1,0,44.8,15.3,44.8,43h-78.8c-0.2,2.7-0.5,5.4-0.5,8.1c0,26.6,20.5,44.4,45.3,44.4c23.6,0,40.8-14.4,44.1-35.6H-157.3z
					 M-246.5,131.6h24.3c23.2,0,31.3-8.1,31.3-20.9c0-9.7-8.6-17.1-21.2-17.1C-229.6,93.6-243.1,109.3-246.5,131.6z"/>
				<g>
					<g>
						<path class="st4" d="M-155.5,107.5l34-16.7v16.7c7.2-9.5,17.1-16.7,30.6-16.7c19.8,0,27.5,11,33.6,41l7.9,38.3
							c4.3,21.8,10.8,30.6,16.4,35.1h-35.4l-14-72.7c-3.8-20-8.1-31.8-19.1-32.2c-8.8-0.5-14.4,4.3-20,10.4v55.2
							c0,21.6,5,34.7,10.6,39.4h-35.6l1.4-63.1c0.5-19.6-5.2-29.7-10.4-33.8V107.5z"/>
					</g>
				</g>
			</g>
		</g>
	</g>
	<g class="st2">
		<path class="st3" d="M-613.4,230.3l-144.7,152.5c-0.8,0.8-2.1,0.3-2.2-0.8l-4-143.6l-149.1,144.8c-0.9,0.9-2.7,1.2-4.3,1.1
			c-1.8-0.1-3.2-1.7-3.2-3.5V236.2c0-0.3,0-0.6,0-0.9l-146.9-0.2c-1.1,0-1.7-1.4-0.9-2.1l149.5-148.7c0.4-0.4,0.9-0.5,1.4-0.3
			c0.4,0.2,0.8,0.6,0.8,1.2l-0.6,143.4l149-145.8c0,0,0,0,0,0c2.1-2,5.5-0.4,5.6,2.5l1.6,144.1c0.1,1,0.1,1.8,0,2.6l3-0.1h0l144-3.6
			c0.6,0,1.1,0.4,1.2,0.9C-613,229.5-613,229.9-613.4,230.3z"/>
	</g>
</g>
<g class="st1">
	<circle class="st5" cx="773" cy="-1276.7" r="14.6"/>
	<g class="st2">
		<g>
			<path class="st6" d="M347.1-1143.7c7.4-16.4,13.3-42.3,15.5-76.6l3.6-57l-9.5-24.1h28.4l49.5,126.3l45.9-126.3H511
				c-3.4,4.5-7.9,10.6-11,16.9l5.4,94.1c1.4,23.4,5.6,36.9,10.6,46.6H472c7-10.6,8.8-29.5,7.9-46.6l-4.3-73.6
				c-7,11.3-16.4,29.5-23.4,48.6l-17.6,48.4v23.2h-16.2L368.7-1271l-3.2,46.8c-2.7,41.2,6.8,66.9,13.7,80.4H347.1z"/>
			<path class="st6" d="M576.1-1258.1c31.5,0,57.9,26.1,57.9,58.5c0,32.2-25.7,57.6-57,57.6c-31.8,0-58.1-26.1-58.1-58.8
				C518.9-1232.9,544.8-1258.1,576.1-1258.1z M588.4-1146.4c15.8,0.2,23.9-15.1,23.9-33.3c0-29.7-23-73.9-48.2-73.9
				c-15.5,0-23.4,15.3-23.4,32.9C540.7-1191,563.4-1147.3,588.4-1146.4z"/>
			<path class="st6" d="M688.9-1258.1c17.8,0,29.3,11.7,33.8,17.1v-9c0.2-19.6-5.2-29.7-10.4-33.8v-0.9l34-16.7v118.2
				c0,21.6,5,34.7,10.6,39.4h-35.6l0.2-12.6c-5.2,5.4-15.1,14.4-32.7,14.4c-23.2,0-47.7-16.9-47.7-57
				C641.1-1238.8,666.8-1258.1,688.9-1258.1z M699.7-1149.8c9.2,0,17.6-6.1,21.8-10.8l1.1-75.4c-4.5-7.2-14-15.1-25.4-15.1
				c-15.8,0-30.4,16.7-30.2,50.4C667.3-1164.7,682.6-1149.8,699.7-1149.8z"/>
			<path class="st6" d="M758.2-1108.8c9.2-3.4,13.1-14.6,12.8-40.5v-57.4c0.2-19.6-5.2-29.7-10.6-33.8v-0.9l34-16.7v96.2
				c0,40.5-20,50.7-36.3,54V-1108.8z"/>
			<path class="st6" d="M921.7-1198.2c-0.5,30.2-24.3,56.3-55.8,56.3c-32.2,0-57.9-24.8-57.9-57.6c0-34.2,26.3-58.5,58.3-58.5
				c24.1,0,44.8,15.3,44.8,43h-78.8c-0.2,2.7-0.5,5.4-0.5,8.1c0,26.6,20.5,44.4,45.3,44.4c23.6,0,40.8-14.4,44.1-35.6H921.7z
				 M832.5-1217.4h24.3c23.2,0,31.3-8.1,31.3-20.9c0-9.7-8.6-17.1-21.2-17.1C849.4-1255.4,835.9-1239.7,832.5-1217.4z"/>
			<g>
				<g>
					<path class="st6" d="M923.5-1241.5l34-16.7v16.7c7.2-9.5,17.1-16.7,30.6-16.7c19.8,0,27.5,11,33.6,41l7.9,38.3
						c4.3,21.8,10.8,30.6,16.4,35.1h-35.4l-14-72.7c-3.8-20-8.1-31.8-19.1-32.2c-8.8-0.5-14.4,4.3-20,10.4v55.2
						c0,21.6,5,34.7,10.6,39.4h-35.6l1.4-63.1c0.5-19.6-5.2-29.7-10.4-33.8V-1241.5z"/>
				</g>
			</g>
		</g>
	</g>
</g>
<g>
	<circle class="st3" cx="652.2" cy="144.4" r="21.5"/>
	<g>
		<g>
			<path class="st6" d="M27.5,339.3C38.4,315.2,47,277.2,50.3,227l5.3-83.5l-13.9-35.3h41.6L156,293.4l67.4-185.2h44.6
				c-5,6.6-11.6,15.5-16.2,24.8l7.9,138c2,34.3,8.3,54.2,15.5,68.4h-64.4c10.2-15.5,12.9-43.3,11.6-68.4l-6.3-108
				c-10.2,16.5-24.1,43.3-34.3,71.3l-25.8,71v34h-23.8l-73-186.6l-4.6,68.7c-4,60.4,9.9,98.1,20.1,117.9H27.5z"/>
			<path class="st6" d="M363.3,171.6c46.2,0,84.9,38.3,84.9,85.9c0,47.2-37.6,84.5-83.5,84.5c-46.6,0-85.2-38.3-85.2-86.2
				C279.5,208.6,317.4,171.6,363.3,171.6z M381.5,335.4c23.1,0.3,35-22.1,35-48.9c0-43.6-33.7-108.3-70.7-108.3
				c-22.8,0-34.3,22.5-34.3,48.2C311.5,270,344.9,334,381.5,335.4z"/>
			<path class="st6" d="M528.8,171.6c26.1,0,42.9,17.2,49.5,25.1v-13.2c0.3-28.7-7.6-43.6-15.2-49.5v-1.3l49.9-24.4v173.4
				c0,31.7,7.3,50.9,15.5,57.8h-52.2l0.3-18.5c-7.6,7.9-22.1,21.1-47.9,21.1c-34,0-70-24.8-70-83.5
				C458.8,200,496.4,171.6,528.8,171.6z M544.6,330.4c13.5,0,25.8-8.9,32-15.9l1.7-110.6c-6.6-10.6-20.5-22.1-37.3-22.1
				c-23.1,0-44.6,24.4-44.2,74C497.1,308.6,519.5,330.4,544.6,330.4z"/>
			<path class="st6" d="M630.5,390.5c13.5-5,19.2-21.5,18.8-59.4v-84.2c0.3-28.7-7.6-43.6-15.5-49.5V196l49.9-24.4v141
				c0,59.4-29.4,74.3-53.2,79.3V390.5z"/>
			<path class="st6" d="M870.2,259.4c-0.7,44.2-35.7,82.6-81.9,82.6c-47.2,0-84.9-36.3-84.9-84.5c0-50.2,38.6-85.9,85.5-85.9
				c35.3,0,65.7,22.5,65.7,63.1H739.1c-0.3,4-0.7,7.9-0.7,11.9c0,39,30,65.1,66.4,65.1c34.7,0,59.8-21.1,64.7-52.2H870.2z
				 M739.4,231.3h35.7c34,0,45.9-11.9,45.9-30.7c0-14.2-12.5-25.1-31-25.1C764.2,175.5,744.4,198.7,739.4,231.3z"/>
			<g>
				<g>
					<path class="st6" d="M872.8,196l49.9-24.4V196c10.6-13.9,25.1-24.4,44.9-24.4c29.1,0,40.3,16.2,49.2,60.1l11.6,56.1
						c6.3,32,15.9,44.9,24.1,51.5h-51.8l-20.5-106.7c-5.6-29.4-11.9-46.6-28.1-47.2c-12.9-0.7-21.1,6.3-29.4,15.2v80.9
						c0,31.7,7.3,50.9,15.5,57.8H886l2-92.5c0.7-28.7-7.6-43.6-15.2-49.5V196z"/>
				</g>
			</g>
		</g>
	</g>
</g>
<g class="st1">
	<path class="st5" d="M465.6-1118.7L320.9-966.2c-0.8,0.8-2.1,0.3-2.2-0.8l-4-143.6L165.7-965.8c-0.9,0.9-2.7,1.2-4.3,1.1
		c-1.8-0.1-3.2-1.7-3.2-3.5v-144.6c0-0.3,0-0.6,0-0.9l-146.9-0.2c-1.1,0-1.7-1.4-0.9-2.1l149.5-148.7c0.4-0.4,0.9-0.5,1.4-0.3
		c0.4,0.2,0.8,0.6,0.8,1.2l-0.6,143.4l149-145.8c0,0,0,0,0,0c2.1-2,5.5-0.4,5.6,2.5l1.6,144.1c0.1,1,0.1,1.8,0,2.6l3-0.1h0l144-3.6
		c0.6,0,1.1,0.4,1.2,0.9C466-1119.5,466-1119.1,465.6-1118.7z"/>
</g>
<g class="st1">
	<rect x="-15.5" y="602.6" class="st5" width="335" height="89.1"/>
	<rect x="372.7" y="602.6" class="st7" width="335" height="89.1"/>
	<rect x="761" y="602.6" class="st8" width="335" height="89.1"/>
	<text transform="matrix(1 0 0 1 445.04 664.6396)" class="st8" style="font-family:'Whitney-Medium'; font-size:48px;">#282828</text>
	<text transform="matrix(1 0 0 1 844.04 664.6396)" class="st5" style="font-family:'Whitney-Medium'; font-size:48px;">#f4f4f4</text>
	<text transform="matrix(1 0 0 1 65.04 664.6396)" class="st8" style="font-family:'Whitney-Medium'; font-size:48px;">#fe3f6c</text>
</g>
<g class="st1">
	<rect x="-476.7" y="-467.4" class="st8" width="535.2" height="150.4"/>
	<rect x="-476.7" y="-617.8" class="st7" width="535.2" height="150.4"/>
	<circle class="st5" cx="-169" cy="-437.1" r="7.3"/>
	<g class="st2">
		<circle class="st3" cx="-169" cy="-589.1" r="7.3"/>
		<path class="st4" d="M-380.7-523c3.7-8.2,6.6-21,7.7-38.1l1.8-28.3l-4.7-12h14.1l24.6,62.8l22.8-62.8h15.1
			c-1.7,2.2-3.9,5.3-5.5,8.4l2.7,46.8c0.7,11.6,2.8,18.4,5.3,23.2h-21.8c3.5-5.3,4.4-14.7,3.9-23.2l-2.1-36.6
			c-3.5,5.6-8.2,14.7-11.6,24.2l-8.7,24.1v11.5h-8.1l-24.7-63.2l-1.6,23.3c-1.3,20.5,3.4,33.2,6.8,40H-380.7z"/>
		<path class="st4" d="M-266.9-579.8c15.7,0,28.8,13,28.8,29.1c0,16-12.8,28.6-28.3,28.6c-15.8,0-28.9-13-28.9-29.2
			C-295.3-567.3-282.5-579.8-266.9-579.8z M-260.7-524.3c7.8,0.1,11.9-7.5,11.9-16.6c0-14.8-11.4-36.7-23.9-36.7
			c-7.7,0-11.6,7.6-11.6,16.3C-284.5-546.5-273.2-524.8-260.7-524.3z"/>
		<path class="st4" d="M-210.8-579.8c8.8,0,14.5,5.8,16.8,8.5v-4.5c0.1-9.7-2.6-14.8-5.1-16.8v-0.4l16.9-8.3v58.8
			c0,10.7,2.5,17.2,5.3,19.6h-17.7l0.1-6.3c-2.6,2.7-7.5,7.2-16.2,7.2c-11.5,0-23.7-8.4-23.7-28.3
			C-234.6-570.2-221.8-579.8-210.8-579.8z M-205.5-526c4.6,0,8.7-3,10.9-5.4l0.6-37.5c-2.2-3.6-6.9-7.5-12.6-7.5
			c-7.8,0-15.1,8.3-15,25.1C-221.6-533.4-214-526-205.5-526z"/>
		<path class="st4" d="M-176.4-505.6c4.6-1.7,6.5-7.3,6.4-20.1v-28.5c0.1-9.7-2.6-14.8-5.3-16.8v-0.4l16.9-8.3v47.8
			c0,20.1-10,25.2-18,26.9V-505.6z"/>
		<path class="st4" d="M-95.1-550.1c-0.2,15-12.1,28-27.8,28c-16,0-28.8-12.3-28.8-28.6c0-17,13.1-29.1,29-29.1
			c12,0,22.3,7.6,22.3,21.4h-39.2c-0.1,1.3-0.2,2.7-0.2,4c0,13.2,10.2,22,22.5,22c11.8,0,20.3-7.2,21.9-17.7H-95.1z M-139.4-559.6
			h12.1c11.5,0,15.6-4,15.6-10.4c0-4.8-4.3-8.5-10.5-8.5C-131-578.5-137.8-570.7-139.4-559.6z"/>
		<path class="st4" d="M-94.2-571.6l16.9-8.3v8.3c3.6-4.7,8.5-8.3,15.2-8.3c9.8,0,13.7,5.5,16.7,20.4l3.9,19
			c2.1,10.9,5.4,15.2,8.2,17.5h-17.6l-6.9-36.1c-1.9-10-4-15.8-9.5-16c-4.4-0.2-7.2,2.1-10,5.1v27.4c0,10.7,2.5,17.2,5.3,19.6h-17.7
			l0.7-31.3c0.2-9.7-2.6-14.8-5.1-16.8V-571.6z"/>
		
			<text transform="matrix(1 0 0 1 -382.2563 -495.1973)" class="st4" style="font-family:'Whitney-Medium'; font-size:10.9138px; letter-spacing:8;">FOR THE MODERN GENERATION</text>
		<line class="st9" x1="-383.3" y1="-486.8" x2="-30.8" y2="-486.8"/>
	</g>
	<g class="st2">
		<g>
			<g>
				<path class="st6" d="M-390.1-370.2c3.9-8.5,6.9-22,8.1-39.7l1.9-29.6l-4.9-12.5h14.7l25.7,65.5l23.8-65.5h15.8
					c-1.8,2.3-4.1,5.5-5.7,8.8l2.8,48.8c0.7,12.2,2.9,19.2,5.5,24.2h-22.8c3.6-5.5,4.6-15.3,4.1-24.2l-2.2-38.2
					c-3.6,5.8-8.5,15.3-12.2,25.2l-9.1,25.1v12h-8.4l-25.8-66l-1.6,24.3c-1.4,21.4,3.5,34.7,7.1,41.7H-390.1z"/>
				<path class="st6" d="M-271.3-429.6c16.4,0,30,13.6,30,30.4c0,16.7-13.3,29.9-29.6,29.9c-16.5,0-30.1-13.6-30.1-30.5
					C-300.9-416.5-287.5-429.6-271.3-429.6z M-264.8-371.6c8.2,0.1,12.4-7.8,12.4-17.3c0-15.4-11.9-38.3-25-38.3
					c-8.1,0-12.2,7.9-12.2,17.1C-289.6-394.8-277.8-372.1-264.8-371.6z"/>
				<path class="st6" d="M-212.7-429.6c9.2,0,15.2,6.1,17.5,8.9v-4.7c0.1-10.2-2.7-15.4-5.4-17.5v-0.5l17.6-8.6v61.3
					c0,11.2,2.6,18,5.5,20.4h-18.5l0.1-6.5c-2.7,2.8-7.8,7.5-16.9,7.5c-12,0-24.8-8.8-24.8-29.6
					C-237.5-419.5-224.2-429.6-212.7-429.6z M-207.1-373.4c4.8,0,9.1-3.2,11.3-5.6l0.6-39.1c-2.3-3.7-7.2-7.8-13.2-7.8
					c-8.2,0-15.8,8.6-15.7,26.2C-224-381.1-216-373.4-207.1-373.4z"/>
				<path class="st6" d="M-176.8-352.1c4.8-1.8,6.8-7.6,6.7-21V-403c0.1-10.2-2.7-15.4-5.5-17.5v-0.5l17.6-8.6v49.9
					c0,21-10.4,26.3-18.8,28V-352.1z"/>
				<path class="st6" d="M-91.9-398.5c-0.2,15.7-12.6,29.2-29,29.2c-16.7,0-30-12.9-30-29.9c0-17.8,13.7-30.4,30.3-30.4
					c12.5,0,23.3,7.9,23.3,22.3h-40.9c-0.1,1.4-0.2,2.8-0.2,4.2c0,13.8,10.6,23,23.5,23c12.3,0,21.1-7.5,22.9-18.5H-91.9z
					 M-138.2-408.4h12.6c12,0,16.2-4.2,16.2-10.9c0-5-4.4-8.9-11-8.9C-129.4-428.2-136.4-420-138.2-408.4z"/>
				<g>
					<g>
						<path class="st6" d="M-91-421l17.6-8.6v8.6c3.7-4.9,8.9-8.6,15.9-8.6c10.3,0,14.3,5.7,17.4,21.3l4.1,19.9
							c2.2,11.3,5.6,15.9,8.5,18.2h-18.3L-53-408c-2-10.4-4.2-16.5-9.9-16.7c-4.6-0.2-7.5,2.2-10.4,5.4v28.6c0,11.2,2.6,18,5.5,20.4
							h-18.5l0.7-32.7c0.2-10.2-2.7-15.4-5.4-17.5V-421z"/>
					</g>
				</g>
			</g>
		</g>
		<g>
			
				<text transform="matrix(1 0 0 1 -390.9927 -342.7676)" class="st6" style="font-family:'Whitney-Medium'; font-size:11.3345px; letter-spacing:8;">FOR THE MODERN GENERATION</text>
		</g>
		<line class="st10" x1="-390.6" y1="-334.6" x2="-25.8" y2="-334.6"/>
	</g>
</g>
</svg>
