<svg xmlns="http://www.w3.org/2000/svg" width="14.715" height="16.621" viewBox="0 0 14.715 16.621">
  <g id="Icon_ionic-ios-notifications" data-name="Icon ionic-ios-notifications" transform="translate(-6.143 -3.33)">
    <path id="Path_161" data-name="Path 161" d="M16.554,30.48A1.907,1.907,0,0,0,18.5,28.336H14.6A1.908,1.908,0,0,0,16.554,30.48Z" transform="translate(-3.062 -11.13)" fill="none" stroke="#000" stroke-width="1.2"/>
    <path id="Path_162" data-name="Path 162" d="M20.07,15.92c-.649-.821-1.926-1.3-1.926-4.981,0-3.775-1.736-5.293-3.354-5.657-.152-.036-.261-.085-.261-.239V4.926a1.029,1.029,0,0,0-2.056,0v.117c0,.15-.11.2-.261.239-1.622.368-3.354,1.882-3.354,5.657,0,3.678-1.277,4.156-1.926,4.981a.8.8,0,0,0,.67,1.287H19.4A.8.8,0,0,0,20.07,15.92Z" transform="translate(0)" fill="none" stroke="#000" stroke-width="1.2"/>
  </g>
</svg>
