<svg width="36" height="36" viewBox="0 0 36 36" fill="none" xmlns="http://www.w3.org/2000/svg">
<path d="M15.219 4.87199C15.4431 4.31806 15.8276 3.84368 16.323 3.50965C16.8185 3.17563 17.4024 2.99718 18 2.99718C18.5976 2.99718 19.1815 3.17563 19.677 3.50965C20.1724 3.84368 20.5569 4.31806 20.781 4.87199C22.9991 5.48202 24.9557 6.80333 26.3501 8.63299C27.7446 10.4627 28.4999 12.6995 28.5 15V22.0455L31.248 26.1675C31.3987 26.3934 31.4853 26.656 31.4985 26.9272C31.5116 27.1985 31.4509 27.4682 31.3228 27.7076C31.1947 27.9471 31.004 28.1473 30.771 28.2868C30.538 28.4263 30.2716 28.5 30 28.5H23.1975C23.0169 29.7496 22.3921 30.8924 21.4376 31.7189C20.483 32.5454 19.2626 33.0003 18 33.0003C16.7374 33.0003 15.517 32.5454 14.5624 31.7189C13.6079 30.8924 12.9831 29.7496 12.8025 28.5H6C5.72844 28.5 5.46195 28.4263 5.22899 28.2868C4.99602 28.1473 4.8053 27.9471 4.67719 27.7076C4.54907 27.4682 4.48837 27.1985 4.50154 26.9272C4.51472 26.656 4.60128 26.3934 4.752 26.1675L7.5 22.0455V15C7.5 10.164 10.77 6.08999 15.219 4.87199ZM15.879 28.5C16.0339 28.939 16.3212 29.3191 16.7012 29.588C17.0812 29.8568 17.5352 30.0012 18.0007 30.0012C18.4663 30.0012 18.9203 29.8568 19.3003 29.588C19.6803 29.3191 19.9676 28.939 20.1225 28.5H15.8775H15.879ZM18 7.49999C16.0109 7.49999 14.1032 8.29017 12.6967 9.69669C11.2902 11.1032 10.5 13.0109 10.5 15V22.5C10.5001 22.7963 10.4124 23.086 10.248 23.3325L8.8035 25.5H27.195L25.7505 23.3325C25.5866 23.0858 25.4995 22.7961 25.5 22.5V15C25.5 13.0109 24.7098 11.1032 23.3033 9.69669C21.8968 8.29017 19.9891 7.49999 18 7.49999V7.49999Z" fill="black"/>
</svg>
