<svg xmlns="http://www.w3.org/2000/svg" width="21.892" height="24" viewBox="0 0 21.892 24">
  <g id="Icon_ionic-ios-notifications" data-name="Icon ionic-ios-notifications" transform="translate(-6.761 -3.93)">
    <g id="Path_161" data-name="Path 161" transform="translate(-0.062 -3.869)" fill="none">
      <path d="M17.754,31.8c2.032,0,3.144-1.438,3.144-3.464H14.6C14.6,30.362,15.715,31.8,17.754,31.8Z" stroke="none"/>
      <path d="M 17.75395202636719 30.59967803955078 C 18.37949371337891 30.59967803955078 18.85984230041504 30.41168785095215 19.1816520690918 30.04093742370605 C 19.30526733398438 29.89852714538574 19.40755271911621 29.72911834716797 19.48752212524414 29.53593826293945 L 16.01404571533203 29.53593826293945 C 16.09403419494629 29.7288932800293 16.19631767272949 29.8980655670166 16.31992340087891 30.04024887084961 C 16.64263343811035 30.41145896911621 17.12510299682617 30.59967803955078 17.75395202636719 30.59967803955078 M 17.75395202636719 31.79967880249023 C 15.71492290496826 31.79967880249023 14.60390281677246 30.36189842224121 14.60390281677246 28.3359375 L 20.89745330810547 28.3359375 C 20.89745330810547 30.36189842224121 19.78644371032715 31.79967880249023 17.75395202636719 31.79967880249023 Z" stroke="none" fill="#000"/>
    </g>
    <g id="Path_162" data-name="Path 162" transform="translate(0 0)" fill="none">
      <path d="M28.376,23.419c-1.054-1.335-3.127-2.118-3.127-8.1,0-6.136-2.819-8.6-5.447-9.195-.246-.059-.424-.138-.424-.388V5.548a1.671,1.671,0,0,0-3.34,0v.191c0,.243-.178.329-.424.388-2.635.6-5.447,3.058-5.447,9.195,0,5.979-2.074,6.755-3.127,8.1A1.3,1.3,0,0,0,8.126,25.51H27.294A1.3,1.3,0,0,0,28.376,23.419Z" stroke="none"/>
      <path d="M 27.29427719116211 24.31002998352051 C 27.36739730834961 24.31002998352051 27.41753768920898 24.28299140930176 27.44331741333008 24.22967147827148 C 27.45995712280273 24.19526100158691 27.45315742492676 24.18667984008789 27.43360710144043 24.16200065612793 C 27.28950691223145 23.97945022583008 27.10189819335938 23.79159164428711 26.88465690612793 23.57406997680664 C 25.68755722045898 22.37541007995605 24.04807662963867 20.73377990722656 24.04807662963867 15.32206058502197 C 24.04807662963867 12.77239036560059 23.53761672973633 10.75954055786133 22.53088760375977 9.33944034576416 C 21.57759666442871 7.994730949401855 20.37662696838379 7.487020492553711 19.53700828552246 7.297890663146973 L 19.52037811279297 7.294020652770996 C 18.30737686157227 7.002580642700195 18.17641830444336 6.109580516815186 18.17641830444336 5.739170551300049 L 18.17641830444336 5.548430919647217 C 18.17641830444336 5.329660892486572 17.95824813842773 5.130420684814453 17.71541786193848 5.130430698394775 L 17.70265769958496 5.130520820617676 L 17.68284797668457 5.130290508270264 C 17.42756652832031 5.130290508270264 17.23681640625 5.351050853729248 17.23681640625 5.548430919647217 L 17.23681640625 5.739170551300049 C 17.23681640625 6.028170585632324 17.1398983001709 6.994400501251221 15.89285755157471 7.294020652770996 L 15.87835693359375 7.29741096496582 C 15.03579711914062 7.488810539245605 13.83163738250732 7.998860836029053 12.87986755371094 9.341791152954102 C 11.8747673034668 10.75995063781738 11.36514759063721 12.77200031280518 11.36514759063721 15.32206058502197 C 11.36514759063721 20.72602081298828 9.728847503662109 22.3675708770752 8.534077644348145 23.56618118286133 C 8.31529712677002 23.78565979003906 8.126347541809082 23.97522163391113 7.98100757598877 24.16025161743164 C 7.958667278289795 24.18867111206055 7.954617500305176 24.1992015838623 7.969437122344971 24.22972106933594 C 7.987237453460693 24.26636123657227 8.028817176818848 24.31002998352051 8.12581729888916 24.31002998352051 L 27.29427719116211 24.31002998352051 M 27.29426765441895 25.51003074645996 L 8.12581729888916 25.51003074645996 C 7.003487586975098 25.51003074645996 6.360207557678223 24.28011131286621 7.037707328796387 23.41851043701172 C 8.091597557067871 22.0767707824707 10.16514778137207 21.3006706237793 10.16514778137207 15.32206058502197 C 10.16514778137207 9.185590744018555 12.97780704498291 6.725740909576416 15.61252689361572 6.127220630645752 C 15.85888767242432 6.068030834197998 16.03681755065918 5.982520580291748 16.03681755065918 5.739170551300049 L 16.03681755065918 5.548430919647217 C 16.03681755065918 4.667101860046387 16.78933715820312 3.917288780212402 17.70661735534668 3.930460691452026 C 18.62338638305664 3.923869609832764 19.37641716003418 4.667100429534912 19.37641716003418 5.548430919647217 L 19.37641716003418 5.739170551300049 C 19.37641716003418 5.989100933074951 19.55434799194336 6.068030834197998 19.80070686340332 6.127220630645752 C 22.42858695983887 6.719160556793213 25.24807739257812 9.185590744018555 25.24807739257812 15.32206058502197 C 25.24807739257812 21.3006706237793 27.3216381072998 22.08335113525391 28.37552642822266 23.41851043701172 C 29.05302810668945 24.27354049682617 28.40974807739258 25.51004028320312 27.29426765441895 25.51003074645996 Z" stroke="none" fill="#000"/>
    </g>
  </g>
</svg>
