<svg xmlns="http://www.w3.org/2000/svg" width="25.534" height="18.111" viewBox="0 0 25.534 18.111">
  <g id="Icon_awesome-box-open" data-name="Icon awesome-box-open" transform="translate(0.405 0.403)">
    <path id="Icon_awesome-box-open-2" data-name="Icon awesome-box-open" d="M16.443,10.9a1.872,1.872,0,0,1-1.6-.9L12.36,5.88,9.88,10a1.879,1.879,0,0,1-1.6.908,1.777,1.777,0,0,1-.514-.073L2.471,9.318v6.876a1.232,1.232,0,0,0,.935,1.2l8.352,2.09a2.511,2.511,0,0,0,1.2,0l8.359-2.09a1.239,1.239,0,0,0,.935-1.2V9.318l-5.292,1.51A1.777,1.777,0,0,1,16.443,10.9Zm8.213-4.334L22.667,2.6a.631.631,0,0,0-.645-.344L12.36,3.485,15.9,9.361a.635.635,0,0,0,.715.282L24.262,7.46a.636.636,0,0,0,.394-.892ZM2.054,2.6.064,6.568a.63.63,0,0,0,.39.888L8.1,9.639a.635.635,0,0,0,.715-.282L12.36,3.485,2.7,2.253a.631.631,0,0,0-.641.344Z" transform="translate(0.003 -2.247)" fill="none" stroke="#4d4d4d" stroke-width="0.8"/>
  </g>
</svg>
