<svg xmlns="http://www.w3.org/2000/svg" width="35.411" height="26.945" viewBox="0 0 35.411 26.945">
  <g id="Group_194" data-name="Group 194" transform="translate(-20.731 -313.959)">
    <path id="Path_139" data-name="Path 139" d="M-3917.427,1946.644c.276-.668,3.322-6.312,3.322-6.312l13.509,1.476,13.509-1.476,3.433,6.312s.221.843-.989,1.2-10.786,2.974-10.786,2.974l-5.168-8.316-5.417,8.316-10.886-3.074S-3917.7,1947.313-3917.427,1946.644Z" transform="translate(3939 -1625.573)" fill="none" stroke="#000" stroke-width="1.5"/>
    <path id="Path_140" data-name="Path 140" d="M-3914.157,1949.966v10.051s-.173,1.633,2.6,2.037c3.074.756,10.859,2.086,10.859,2.086l10.988-2.334s2.555-.682,2.555-1.789v-10.051l-6.888,2.3s-2.034.665-2.941-.767-3.714-6.474-3.714-6.474l-3.833,6.474s-.681,1.278-2.9.767A68.4,68.4,0,0,1-3914.157,1949.966Z" transform="translate(3939.096 -1624)" fill="none" stroke="#000" stroke-width="1.5"/>
  </g>
</svg>
