<svg id="Component_45_1" data-name="Component 45 – 1" xmlns="http://www.w3.org/2000/svg" width="47.43" height="41.988" viewBox="0 0 47.43 41.988">
  <g id="Group_164" data-name="Group 164" transform="matrix(0.891, 0.454, -0.454, 0.891, 12.264, 0)">
    <g id="Ellipse_36" data-name="Ellipse 36" transform="translate(5.974 0)" fill="none" stroke="#4d4d4d" stroke-width="0.7">
      <ellipse cx="13.507" cy="13.507" rx="13.507" ry="13.507" stroke="none"/>
      <ellipse cx="13.507" cy="13.507" rx="13.157" ry="13.157" fill="none"/>
    </g>
    <g id="Ellipse_37" data-name="Ellipse 37" transform="translate(8.43 2.456)" fill="none" stroke="#4d4d4d" stroke-width="0.7" stroke-dasharray="2">
      <ellipse cx="11.051" cy="11.051" rx="11.051" ry="11.051" stroke="none"/>
      <ellipse cx="11.051" cy="11.051" rx="10.701" ry="10.701" fill="none"/>
    </g>
    <g id="Path_24" data-name="Path 24" transform="translate(0 0.233)" fill="#f6f6f6">
      <path d="M 4.321110725402832 25.75638771057129 L 5.001266956329346 20.99541854858398 L 5.035146713256836 20.75829887390137 L 4.826376914978027 20.640869140625 L 0.7343414425849915 18.33910369873047 L 34.69445419311523 0.6085407733917236 L 34.17367553710938 6.076308250427246 L 34.14908599853516 6.334428310394287 L 34.38884735107422 6.433138370513916 L 38.63245010375977 8.180246353149414 L 4.321110725402832 25.75638771057129 Z" stroke="none"/>
      <path d="M 4.763194561004639 25.13667869567871 L 37.79718017578125 8.21486759185791 L 33.77607727050781 6.559368133544922 L 34.28489303588867 1.21720278263092 L 1.468621373176575 18.35056495666504 L 5.415496826171875 20.5706787109375 L 4.763194561004639 25.13667869567871 M 3.879026651382446 26.3760986328125 L 4.654786586761475 20.94591903686523 L 5.671874896506779e-05 18.32763862609863 L 35.10400772094727 -0.0001217187527799979 L 34.52209854125977 6.109498500823975 L 39.46771621704102 8.145627975463867 L 3.879026651382446 26.3760986328125 Z" stroke="none" fill="#4d4d4d"/>
    </g>
    <text id="ORIGINAL" transform="matrix(0.891, -0.454, 0.454, 0.891, 12.396, 18.844)" fill="#4d4d4d" font-size="4" font-family="Whitney-Medium, Whitney" font-weight="500"><tspan x="0" y="0">ORIGINAL</tspan></text>
  </g>
</svg>
