<svg xmlns="http://www.w3.org/2000/svg" width="39.612" height="39.612" viewBox="0 0 39.612 39.612">
  <g id="Icon_ionic-ios-compass" data-name="Icon ionic-ios-compass" transform="translate(-3.375 -3.375)">
    <path id="Path_131" data-name="Path 131" d="M22.263,20.957,17.6,16.291a.2.2,0,0,0-.3.038l-4.713,9.379a.2.2,0,0,0,.267.267l9.379-4.713A.2.2,0,0,0,22.263,20.957Z" transform="translate(3.25 4.557)" fill="#282828"/>
    <path id="Path_132" data-name="Path 132" d="M23.181,3.375A19.806,19.806,0,1,0,42.987,23.181,19.8,19.8,0,0,0,23.181,3.375Zm3.866,23.739-15.2,7.665a.2.2,0,0,1-.267-.267l7.675-15.2a.222.222,0,0,1,.067-.067l15.188-7.665a.2.2,0,0,1,.267.267L27.1,27.047A.128.128,0,0,1,27.047,27.114Z" fill="#282828"/>
  </g>
</svg>
