<svg width="36" height="36" viewBox="0 0 36 36" fill="none" xmlns="http://www.w3.org/2000/svg">
<path d="M6.75788 30.5C6.75309 30.4998 6.74166 30.4994 6.72457 30.4981C6.68963 30.4957 6.63319 30.4902 6.56284 30.4785C6.41739 30.4542 6.23875 30.4076 6.07221 30.3243C5.90959 30.243 5.77739 30.1368 5.68361 29.9961C5.59401 29.8617 5.5 29.6375 5.5 29.25C5.5 28.3818 5.96304 26.3887 7.73836 24.6134C9.48436 22.8673 12.5859 21.25 18 21.25C23.4141 21.25 26.5156 22.8673 28.2616 24.6134C30.037 26.3887 30.5 28.3818 30.5 29.25C30.5 29.6375 30.406 29.8617 30.3164 29.9961C30.2226 30.1368 30.0904 30.243 29.9278 30.3243C29.7613 30.4076 29.5826 30.4542 29.4372 30.4785C29.3668 30.4902 29.3104 30.4957 29.2754 30.4981C29.2583 30.4994 29.2469 30.4998 29.2421 30.5H6.75788ZM22.0659 15.3159C20.9875 16.3942 19.525 17 18 17C16.475 17 15.0125 16.3942 13.9341 15.3159C12.8558 14.2375 12.25 12.775 12.25 11.25C12.25 9.72501 12.8558 8.26247 13.9341 7.18414C15.0125 6.1058 16.475 5.5 18 5.5C19.525 5.5 20.9875 6.1058 22.0659 7.18414C23.1442 8.26247 23.75 9.725 23.75 11.25C23.75 12.775 23.1442 14.2375 22.0659 15.3159Z" stroke="black" stroke-width="2"/>
</svg>
