<svg width="35" height="36" viewBox="0 0 35 36" fill="none" xmlns="http://www.w3.org/2000/svg">
<path fill-rule="evenodd" clip-rule="evenodd" d="M23.8073 22.3485L31.6531 30.4185C31.9289 30.7023 32.0837 31.0872 32.0836 31.4885C32.0835 31.8898 31.9284 32.2746 31.6524 32.5582C31.3764 32.8419 31.0022 33.0012 30.6121 33.001C30.222 33.0009 29.8479 32.8413 29.5721 32.5575L21.7262 24.4875C19.3808 26.356 16.4314 27.2353 13.4781 26.9465C10.5248 26.6577 7.7893 25.2225 5.8282 22.9329C3.86711 20.6433 2.82769 17.6712 2.92141 14.6213C3.01512 11.5714 4.23493 8.67279 6.33267 6.51511C8.43042 4.35742 11.2485 3.10277 14.2137 3.00638C17.1789 2.90998 20.0684 3.9791 22.2944 5.99622C24.5205 8.01335 25.9158 10.827 26.1966 13.8647C26.4773 16.9024 25.6224 19.9361 23.8058 22.3485H23.8073ZM14.5833 24C16.904 24 19.1296 23.0518 20.7705 21.364C22.4115 19.6761 23.3333 17.3869 23.3333 15C23.3333 12.613 22.4115 10.3239 20.7705 8.63604C19.1296 6.94821 16.904 6 14.5833 6C12.2627 6 10.0371 6.94821 8.39615 8.63604C6.75521 10.3239 5.83333 12.613 5.83333 15C5.83333 17.3869 6.75521 19.6761 8.39615 21.364C10.0371 23.0518 12.2627 24 14.5833 24V24Z" fill="black"/>
</svg>
