<svg id="Icon_ionic-md-share" data-name="Icon ionic-md-share" xmlns="http://www.w3.org/2000/svg" width="12.679" height="14" viewBox="0 0 12.679 14">
  <path id="Icon_ionic-md-share-2" data-name="Icon ionic-md-share" d="M15.06,13.014a1.925,1.925,0,0,0-1.378.528l-5.051-2.92a2.366,2.366,0,0,0,.071-.493,2.364,2.364,0,0,0-.071-.493l4.98-2.884A2.114,2.114,0,1,0,12.941,5.2a2.351,2.351,0,0,0,.071.493L8.032,8.581a2.126,2.126,0,0,0-1.448-.563A2.091,2.091,0,0,0,4.5,10.129a2.126,2.126,0,0,0,3.567,1.548l5.015,2.92a1.765,1.765,0,0,0-.071.457,2.048,2.048,0,1,0,2.048-2.04Z" transform="translate(-4.5 -3.094)"/>
</svg>
